<svg width="87" height="80" viewBox="0 0 87 80" fill="none" xmlns="http://www.w3.org/2000/svg">
<g id="logo">
<path id="Combined Shape" opacity="0.08" fill-rule="evenodd" clip-rule="evenodd" d="M5.57447 35.4437C4.70321 36.3741 4.91301 37.8713 6.00646 38.5264L41.4817 59.7806C42.2934 60.2669 43.3347 60.1179 43.9774 59.4235L53.7995 48.8116L68.1446 57.4062C68.9563 57.8925 69.9976 57.7434 70.6403 57.0491L82.2377 44.5191C83.1023 43.585 82.886 42.0918 81.792 41.4414L46.3048 20.3446C45.4975 19.8647 44.4649 20.0112 43.8229 20.6968L33.9592 31.2305L19.6419 22.719C18.8346 22.2391 17.802 22.3856 17.16 23.0712L5.57447 35.4437Z" fill="#334148"/>
<path id="left" fill-rule="evenodd" clip-rule="evenodd" d="M4.44987 38.4745C4.10443 37.7337 4.24453 36.8573 4.80366 36.2611L16.5179 23.7706C17.4861 22.7383 19.1908 23.0106 19.7892 24.2931L38.1535 63.6534C38.499 64.3939 38.3593 65.2701 37.8006 65.8664L26.0834 78.3728C25.1153 79.4061 23.4096 79.1339 22.8113 77.8506L4.44987 38.4745Z" fill="black"/>
<path id="right" fill-rule="evenodd" clip-rule="evenodd" d="M49.659 16.2957C49.3136 15.5549 49.4537 14.6785 50.0128 14.0823L61.7271 1.59178C62.6952 0.559465 64.3999 0.831764 64.9983 2.11431L83.3627 41.4746C83.7082 42.2151 83.5684 43.0913 83.0097 43.6876L71.2925 56.194C70.3245 57.2273 68.6188 56.9551 68.0204 55.6718L49.659 16.2957Z" fill="black"/>
<path id="middle" fill-rule="evenodd" clip-rule="evenodd" d="M31.1104 36.0952C30.7651 35.3547 30.9049 34.4786 31.4636 33.8824L43.175 21.3847C44.1429 20.3518 45.848 20.6237 46.4467 21.9064L56.6903 43.8532C57.036 44.5938 56.8962 45.4704 56.3372 46.0668L44.6185 58.5695C43.6504 59.6024 41.945 59.3301 41.3467 58.047L31.1104 36.0952Z" fill="black"/>
</g>
</svg>
